<?xml version="1.0" encoding="UTF-8" standalone="no"?>
<!DOCTYPE svg PUBLIC "-//W3C//DTD SVG 1.1//EN" "http://www.w3.org/Graphics/SVG/1.1/DTD/svg11.dtd">
<svg version="1.1" xmlns="http://www.w3.org/2000/svg" xmlns:xlink="http://www.w3.org/1999/xlink" preserveAspectRatio="xMidYMid meet" viewBox="0 0 640 155" width="640" height="155"><defs><path d="M423.98 95.5C422.29 153.27 499.4 173.26 524.71 141.45C524.71 139 524.71 119.37 524.71 116.92C524.71 116.92 516.67 130.81 485.51 130.81C454.35 130.81 453.31 107.7 453.31 107.7C461.35 107.7 525.64 107.7 533.67 107.7C534.46 103.68 534.85 99.59 534.84 95.5C534.71 62.01 509.92 34.87 479.41 34.87C448.77 34.87 425.01 62.01 423.98 95.5ZM452.93 87.06C456.17 74.21 467.21 64.6 480.19 64.6C493.17 64.6 504.2 74.08 507.45 87.06C496.54 87.06 463.83 87.06 452.93 87.06ZM48.67 36.69C22.32 36.69 1.03 63.3 1.03 96.15C1.03 128.99 22.45 155.73 48.8 155.73C61.14 155.73 72.3 149.89 80.74 140.42C80.74 141.39 80.74 146.28 80.74 155.08L111.38 155.08L111.38 37.34L80.61 37.34L80.61 52.01C67.54 41.8 56.9 36.69 48.67 36.69ZM33.36 96.8C33.36 78.88 44.26 64.21 57.76 64.21C71.26 64.21 82.17 78.88 82.17 96.8C82.17 114.71 71.26 129.38 57.76 129.38C44.26 129.38 33.36 114.71 33.36 96.8ZM285.33 64.08C285.33 64.08 283.38 36.43 254.56 36.43C254.56 36.43 219.51 52.53 219.51 52.53C213.48 41.51 201.82 34.76 189.27 35C171.22 35 161.62 45.39 158.76 49.15C158.76 48.32 158.76 44.17 158.76 36.69L128.77 36.69L128.77 154.7L158.76 154.7C158.76 108.51 158.76 82.85 158.76 77.71C160.71 72.91 165.77 63.56 176.54 63.56C188.36 63.56 191.86 73.3 192.64 79.01C192.64 85.23 192.64 134.98 192.64 141.19C193.81 147.04 197.19 151.19 201.47 154.7C204.47 154.7 228.46 154.7 231.46 154.7C226.65 150.8 223.67 146.39 222.63 141.45C222.63 135.65 222.63 89.23 222.63 83.43C222.63 83.43 221.72 64.73 239.64 63.82C252.62 63.17 254.95 74.99 255.34 81.48C255.34 87.45 255.34 135.22 255.34 141.19C256.51 147.04 259.89 151.19 264.17 154.7C267.17 154.7 291.16 154.7 294.16 154.7C289.36 150.67 286.24 146.39 285.33 141.45C285.33 125.98 285.33 71.82 285.33 64.08ZM336.48 52.01C336.48 48.61 336.48 31.6 336.48 0.99L305.84 0.99L305.84 155.08L336.48 155.08C336.48 146.28 336.48 141.39 336.48 140.42C344.92 149.89 356.08 155.73 368.41 155.73C394.77 155.73 416.06 129.12 416.06 96.15C416.06 63.17 394.77 36.69 368.41 36.69C356.08 36.69 344.92 42.53 336.48 52.01ZM334.92 96.8C334.92 78.88 345.83 64.21 359.33 64.21C372.83 64.21 383.73 78.88 383.73 96.8C383.73 114.71 372.83 129.38 359.33 129.38C345.83 129.38 334.92 114.71 334.92 96.8ZM606.37 36.82L584.17 119.9L561.97 36.82L526.4 36.82L565.74 154.83L599.49 154.83L641.03 36.82L606.37 36.82Z" id="bEvJEWqH"></path></defs><g><g><g><use xlink:href="#bEvJEWqH" opacity="1" fill="#ffffff" fill-opacity="1"></use><g><use xlink:href="#bEvJEWqH" opacity="1" fill-opacity="0" stroke="#000000" stroke-width="1" stroke-opacity="0"></use></g></g></g></g></svg>